<svg width="42" height="42" viewBox="0 0 42 42" fill="none" xmlns="http://www.w3.org/2000/svg">
<path fill-rule="evenodd" clip-rule="evenodd" d="M2.02072 5.94482C2.67974 4.85155 6.31288 0.882845 8.90187 1.00266C9.67643 1.06898 10.3611 1.53538 10.9174 2.07881H10.9196C12.1948 3.32825 15.8536 8.04363 16.059 9.03635C16.5661 11.4711 13.6626 12.8745 14.5506 15.3285C16.8143 20.8676 20.7149 24.7678 26.2567 27.0292C28.7087 27.9193 30.1123 25.0181 32.5473 25.5231C33.5401 25.7306 38.258 29.3869 39.5055 30.6642V30.6642C40.0468 31.2183 40.5175 31.9051 40.5817 32.6796C40.678 35.4074 36.4629 39.0894 35.6412 39.5601C33.7027 40.9486 31.1736 40.9229 28.0904 39.4895C19.4868 35.9102 5.73731 22.4208 2.09133 13.4929C0.696269 10.427 0.602124 7.88104 2.02072 5.94482Z" stroke="white" stroke-width="1.5" stroke-linecap="round" stroke-linejoin="round"/>
<path opacity="0.4" d="M26.1363 1.52087C33.8488 2.37712 39.9383 8.46046 40.805 16.1709" stroke="white" stroke-width="1.5" stroke-linecap="round" stroke-linejoin="round"/>
<path opacity="0.4" d="M26.1363 8.9021C29.8238 9.62085 32.705 12.5021 33.4238 16.1896" stroke="white" stroke-width="1.5" stroke-linecap="round" stroke-linejoin="round"/>
</svg>
